<?xml version="1.0" encoding="utf-8"?>
<!-- Generator: Adobe Illustrator 26.0.1, SVG Export Plug-In . SVG Version: 6.00 Build 0)  -->
<svg version="1.0" id="Layer_1" xmlns="http://www.w3.org/2000/svg" xmlns:xlink="http://www.w3.org/1999/xlink" x="0px" y="0px"
	 viewBox="0 0 1080 1080" style="enable-background:new 0 0 1080 1080;" xml:space="preserve">
<style type="text/css">
	.st0{fill-rule:evenodd;clip-rule:evenodd;}
</style>
<g>
	<path class="st0" d="M501.05,347.72h93.62h90.11c72.56,0,131.92,59.36,131.92,131.92v0c0,52.88-31.54,98.75-76.73,119.74
		l76.73,132.91H713.51l-121.3-210.09h9.57h83c23.41,0,42.55-19.15,42.55-42.55v0c0-23.41-19.15-42.55-42.55-42.55h-38.51h-93.62
		h-9.57l-51.59-89.36H501.05z"/>
	<polygon class="st0" points="465.13,399.75 487.69,438.83 657.12,732.28 553.93,732.28 436.1,528.2 318.27,732.28 215.08,732.28 
		436.1,349.47 	"/>
</g>
</svg>
